<?xml version="1.0" encoding="UTF-8" standalone="no"?>
<!-- Created with Inkscape (http://www.inkscape.org/) -->

<svg
   xmlns:dc="http://purl.org/dc/elements/1.1/"
   xmlns:cc="http://creativecommons.org/ns#"
   xmlns:rdf="http://www.w3.org/1999/02/22-rdf-syntax-ns#"
   xmlns:svg="http://www.w3.org/2000/svg"
   xmlns="http://www.w3.org/2000/svg"
   xmlns:sodipodi="http://sodipodi.sourceforge.net/DTD/sodipodi-0.dtd"
   xmlns:inkscape="http://www.inkscape.org/namespaces/inkscape"
   width="32"
   height="32"
   id="svg2"
   version="1.1"
   inkscape:version="0.48.4 r9939"
   inkscape:export-filename="D:\Projects\Rollstreams\public\online.png"
   inkscape:export-xdpi="90"
   inkscape:export-ydpi="90"
   sodipodi:docname="icons.svg">
  <defs
     id="defs4" />
  <sodipodi:namedview
     id="base"
     pagecolor="#38e3f6"
     bordercolor="#666666"
     borderopacity="1.0"
     inkscape:pageopacity="0"
     inkscape:pageshadow="2"
     inkscape:zoom="11.313708"
     inkscape:cx="15.609982"
     inkscape:cy="15.261301"
     inkscape:document-units="px"
     inkscape:current-layer="layer4"
     showgrid="false"
     inkscape:window-width="1920"
     inkscape:window-height="1018"
     inkscape:window-x="1072"
     inkscape:window-y="720"
     inkscape:window-maximized="1" />
  <metadata
     id="metadata7">
    <rdf:RDF>
      <cc:Work
         rdf:about="">
        <dc:format>image/svg+xml</dc:format>
        <dc:type
           rdf:resource="http://purl.org/dc/dcmitype/StillImage" />
        <dc:title></dc:title>
      </cc:Work>
    </rdf:RDF>
  </metadata>
  <g
     inkscape:label="online"
     inkscape:groupmode="layer"
     id="layer1"
     transform="translate(0,-1020.3622)"
     style="display:inline">
    <path
       sodipodi:type="arc"
       style="fill:#50cf5e;fill-opacity:1;stroke:none"
       id="path2985"
       sodipodi:cx="14.5"
       sodipodi:cy="5.5"
       sodipodi:rx="12.5"
       sodipodi:ry="12.5"
       d="m 27,5.5 a 12.5,12.5 0 1 1 -25,0 12.5,12.5 0 1 1 25,0 z"
       transform="matrix(1.04,0,0,1.04,0.92,1030.6422)" />
  </g>
  <g
     inkscape:groupmode="layer"
     id="layer2"
     inkscape:label="offline"
     style="display:none">
    <path
       sodipodi:type="arc"
       style="fill:#cf5250;fill-opacity:1;stroke:none"
       id="path2985-6"
       sodipodi:cx="14.5"
       sodipodi:cy="5.5"
       sodipodi:rx="12.5"
       sodipodi:ry="12.5"
       d="m 27,5.5 a 12.5,12.5 0 1 1 -25,0 12.5,12.5 0 1 1 25,0 z"
       transform="matrix(1.04,0,0,1.04,0.92,10.28)" />
  </g>
  <g
     inkscape:groupmode="layer"
     id="layer3"
     inkscape:label="close"
     style="display:none">
    <path
       style="fill:#ffffff;fill-opacity:1;stroke:none"
       d="M 16,1 C 7.7157288,1 1,7.7157288 1,16 1,24.284271 7.7157288,31 16,31 24.284271,31 31,24.284271 31,16 31,7.7157288 24.284271,1 16,1 z M 8.9375,6.09375 16,13.15625 23.0625,6.09375 25.90625,8.9375 18.84375,16 25.90625,23.0625 23.0625,25.90625 16,18.84375 8.9375,25.90625 6.09375,23.0625 13.15625,16 6.09375,8.9375 8.9375,6.09375 z"
       id="path3775"
       inkscape:connector-curvature="0" />
  </g>
  <g
     inkscape:groupmode="layer"
     id="layer4"
     inkscape:label="lock"
     style="display:none">
    <path
       style="fill:#ffffff;fill-opacity:1;stroke:none"
       d="m 4,15.28125 0,16 24,0 0,-16 -24,0 z M 16,18 c 1.10457,0 2,0.89543 2,2 0,0.887107 -0.575392,1.644451 -1.375,1.90625 L 18,26 14,26 15.375,21.90625 C 14.575392,21.644451 14,20.887107 14,20 c 0,-1.10457 0.89543,-2 2,-2 z"
       id="rect3800"
       inkscape:connector-curvature="0" />
    <rect
       style="fill:none;stroke:#ffffff;stroke-width:4;stroke-miterlimit:4;stroke-opacity:1;stroke-dasharray:none"
       id="rect3804"
       width="14"
       height="26"
       x="9"
       y="3"
       ry="6.1429901" />
  </g>
  <g
     style="display:none"
     inkscape:label="lock over"
     id="g3813"
     inkscape:groupmode="layer">
    <path
       id="path3815"
       d="m 4,15.28125 0,16 24,0 0,-16 -24,0 z M 16,18 c 1.10457,0 2,0.89543 2,2 0,0.887107 -0.575392,1.644451 -1.375,1.90625 L 18,26 14,26 15.375,21.90625 C 14.575392,21.644451 14,20.887107 14,20 c 0,-1.10457 0.89543,-2 2,-2 z"
       style="fill:#ffc375;fill-opacity:1;stroke:none"
       inkscape:connector-curvature="0" />
    <rect
       ry="6.1429901"
       y="3"
       x="9"
       height="26"
       width="14"
       id="rect3817"
       style="fill:none;stroke:#ffc375;stroke-width:4;stroke-miterlimit:4;stroke-opacity:1;stroke-dasharray:none" />
  </g>
</svg>
